<svg width="25" height="24" viewBox="0 0 25 24" fill="none" xmlns="http://www.w3.org/2000/svg">
<path d="M10 13.7502C10 14.7202 10.75 15.5002 11.67 15.5002H13.55C14.35 15.5002 15 14.8202 15 13.9702C15 13.0602 14.6 12.7302 14.01 12.5202L11 11.4702C10.41 11.2602 10.01 10.9402 10.01 10.0202C10.01 9.18023 10.66 8.49023 11.46 8.49023H13.34C14.26 8.49023 15.01 9.27023 15.01 10.2402" stroke="url(#paint0_linear_150_2427)" stroke-width="1.5" stroke-linecap="round" stroke-linejoin="round"/>
<path d="M12.5 7.5V16.5" stroke="url(#paint1_linear_150_2427)" stroke-width="1.5" stroke-linecap="round" stroke-linejoin="round"/>
<path d="M22.5 12C22.5 17.52 18.02 22 12.5 22C6.98 22 2.5 17.52 2.5 12C2.5 6.48 6.98 2 12.5 2" stroke="url(#paint2_linear_150_2427)" stroke-width="1.5" stroke-linecap="round" stroke-linejoin="round"/>
<path d="M17.5 3V7H21.5" stroke="url(#paint3_linear_150_2427)" stroke-width="1.5" stroke-linecap="round" stroke-linejoin="round"/>
<path d="M22.5 2L17.5 7" stroke="url(#paint4_linear_150_2427)" stroke-width="1.5" stroke-linecap="round" stroke-linejoin="round"/>
<defs>
<linearGradient id="paint0_linear_150_2427" x1="12.505" y1="8.49023" x2="12.505" y2="15.5002" gradientUnits="userSpaceOnUse">
<stop stop-color="#3A96AD"/>
<stop offset="1" stop-color="#5A82FC"/>
</linearGradient>
<linearGradient id="paint1_linear_150_2427" x1="13" y1="7.5" x2="13" y2="16.5" gradientUnits="userSpaceOnUse">
<stop stop-color="#3A96AD"/>
<stop offset="1" stop-color="#5A82FC"/>
</linearGradient>
<linearGradient id="paint2_linear_150_2427" x1="12.5" y1="2" x2="12.5" y2="22" gradientUnits="userSpaceOnUse">
<stop stop-color="#3A96AD"/>
<stop offset="1" stop-color="#5A82FC"/>
</linearGradient>
<linearGradient id="paint3_linear_150_2427" x1="19.5" y1="3" x2="19.5" y2="7" gradientUnits="userSpaceOnUse">
<stop stop-color="#3A96AD"/>
<stop offset="1" stop-color="#5A82FC"/>
</linearGradient>
<linearGradient id="paint4_linear_150_2427" x1="20" y1="2" x2="20" y2="7" gradientUnits="userSpaceOnUse">
<stop stop-color="#3A96AD"/>
<stop offset="1" stop-color="#5A82FC"/>
</linearGradient>
</defs>
</svg>
