<svg width="38" height="32" viewBox="0 0 38 32" fill="none" xmlns="http://www.w3.org/2000/svg">
<path d="M22.2466 9.40837H2.47185V29.1831H22.2466V9.40837ZM0 6.93652V31.655H24.7185V6.93652H0Z" fill="url(#paint0_linear_58_465)"/>
<path d="M22.2466 9.40837H2.47185V29.1831H22.2466V9.40837ZM0 6.93652V31.655H24.7185V6.93652H0Z" stroke="black"/>
<path d="M34.606 2.81657H14.8312V9.40816H12.3594V2.81657V0.344727H14.8312H34.606H37.0778V2.81657V22.5913V25.0632H34.606H26.3665V22.5913H34.606V2.81657ZM24.7186 22.5913H14.8312V11.0561H12.3594V22.5913V25.0632H14.8312H24.7186V22.5913Z" fill="url(#paint1_linear_58_465)"/>
<path d="M34.606 2.81657H14.8312V9.40816H12.3594V2.81657V0.344727H14.8312H34.606H37.0778V2.81657V22.5913V25.0632H34.606H26.3665V22.5913H34.606V2.81657ZM24.7186 22.5913H14.8312V11.0561H12.3594V22.5913V25.0632H14.8312H24.7186V22.5913Z" stroke="black"/>
<defs>
<linearGradient id="paint0_linear_58_465" x1="12.3592" y1="6.93652" x2="12.3592" y2="31.655" gradientUnits="userSpaceOnUse">
<stop stop-color="#3A96AD"/>
<stop offset="1" stop-color="#5A82FC"/>
</linearGradient>
<linearGradient id="paint1_linear_58_465" x1="24.7186" y1="0.344727" x2="24.7186" y2="25.0632" gradientUnits="userSpaceOnUse">
<stop stop-color="#3A96AD"/>
<stop offset="1" stop-color="#5A82FC"/>
</linearGradient>
</defs>
</svg>
