<svg width="38" height="32" viewBox="0 0 38 32" fill="none" xmlns="http://www.w3.org/2000/svg">
<path d="M22.2466 9.06364H2.47185V28.8384H22.2466V9.06364ZM0 6.5918V31.3103H24.7185V6.5918H0Z" fill="url(#paint0_linear_2_26399)"/>
<path d="M22.2466 9.06364H2.47185V28.8384H22.2466V9.06364ZM0 6.5918V31.3103H24.7185V6.5918H0Z" stroke="black"/>
<path d="M34.606 2.47185H14.8312V9.06344H12.3594V2.47185V0H14.8312H34.606H37.0778V2.47185V22.2466V24.7185H34.606H26.3665V22.2466H34.606V2.47185ZM24.7186 22.2466H14.8312V10.7113H12.3594V22.2466V24.7185H14.8312H24.7186V22.2466Z" fill="url(#paint1_linear_2_26399)"/>
<path d="M34.606 2.47185H14.8312V9.06344H12.3594V2.47185V0H14.8312H34.606H37.0778V2.47185V22.2466V24.7185H34.606H26.3665V22.2466H34.606V2.47185ZM24.7186 22.2466H14.8312V10.7113H12.3594V22.2466V24.7185H14.8312H24.7186V22.2466Z" stroke="black"/>
<defs>
<linearGradient id="paint0_linear_2_26399" x1="12.3592" y1="6.5918" x2="12.3592" y2="31.3103" gradientUnits="userSpaceOnUse">
<stop stop-color="#3A96AD"/>
<stop offset="1" stop-color="#5A82FC"/>
</linearGradient>
<linearGradient id="paint1_linear_2_26399" x1="24.7186" y1="0" x2="24.7186" y2="24.7185" gradientUnits="userSpaceOnUse">
<stop stop-color="#3A96AD"/>
<stop offset="1" stop-color="#5A82FC"/>
</linearGradient>
</defs>
</svg>
