<svg width="54" height="55" viewBox="0 0 54 55" fill="none" xmlns="http://www.w3.org/2000/svg">
<circle cx="27" cy="27.5" r="27" fill="#E2146B" fill-opacity="0.1"/>
<path d="M36.01 27.2197V31.7097C36.01 36.1997 34.22 37.9998 29.72 37.9998H24.33C23.75 37.9998 23.22 37.9698 22.73 37.8998" stroke="#E2146B" stroke-width="1.5" stroke-linecap="round" stroke-linejoin="round"/>
<path d="M18.04 31.5198V27.2197" stroke="#E2146B" stroke-width="1.5" stroke-linecap="round" stroke-linejoin="round"/>
<path d="M27.0299 28C28.8599 28 30.2099 26.5101 30.0299 24.6801L29.3599 18H24.6899L24.0199 24.6801C23.8399 26.5101 25.1999 28 27.0299 28Z" stroke="#E2146B" stroke-width="1.5" stroke-linecap="round" stroke-linejoin="round"/>
<path d="M33.3301 28C35.3501 28 36.8301 26.36 36.6301 24.35L36.35 21.6C35.99 19 34.9901 18 32.3701 18H29.3201L30.0201 25.01C30.2001 26.66 31.6801 28 33.3301 28Z" stroke="#E2146B" stroke-width="1.5" stroke-linecap="round" stroke-linejoin="round"/>
<path d="M20.67 28C22.32 28 23.81 26.66 23.97 25.01L24.1901 22.8L24.67 18H21.6201C19.0001 18 18.0001 19 17.6401 21.6L17.36 24.35C17.16 26.36 18.65 28 20.67 28Z" stroke="#E2146B" stroke-width="1.5" stroke-linecap="round" stroke-linejoin="round"/>
<path d="M24 35C24 35.75 23.79 36.4601 23.42 37.0601C23.23 37.3801 23 37.67 22.73 37.9C22.7 37.94 22.67 37.97 22.63 38C21.93 38.63 21.01 39 20 39C18.78 39 17.69 38.45 16.97 37.59C16.95 37.56 16.92 37.54 16.9 37.51C16.78 37.37 16.67 37.2201 16.58 37.0601C16.21 36.4601 16 35.75 16 35C16 33.74 16.58 32.61 17.5 31.88C17.67 31.74 17.85 31.62 18.04 31.52C18.62 31.19 19.29 31 20 31C21 31 21.9 31.36 22.6 31.97C22.72 32.06 22.83 32.17 22.93 32.28C23.59 33 24 33.95 24 35Z" stroke="#E2146B" stroke-width="1.5" stroke-miterlimit="10" stroke-linecap="round" stroke-linejoin="round"/>
<path d="M21.49 34.9805H18.51" stroke="#E2146B" stroke-width="1.5" stroke-miterlimit="10" stroke-linecap="round" stroke-linejoin="round"/>
</svg>
