<svg width="24" height="25" viewBox="0 0 24 25" fill="none" xmlns="http://www.w3.org/2000/svg">
<path d="M9.5 14.2502C9.5 15.2202 10.25 16.0002 11.17 16.0002H13.05C13.85 16.0002 14.5 15.3202 14.5 14.4702C14.5 13.5602 14.1 13.2302 13.51 13.0202L10.5 11.9702C9.91 11.7602 9.51001 11.4402 9.51001 10.5202C9.51001 9.68023 10.16 8.99023 10.96 8.99023H12.84C13.76 8.99023 14.51 9.77023 14.51 10.7402" stroke="#FF8901" stroke-width="1.5" stroke-linecap="round" stroke-linejoin="round"/>
<path d="M12 8V17" stroke="#FF8901" stroke-width="1.5" stroke-linecap="round" stroke-linejoin="round"/>
<path d="M22 12.5C22 18.02 17.52 22.5 12 22.5C6.48 22.5 2 18.02 2 12.5C2 6.98 6.48 2.5 12 2.5" stroke="#FF8901" stroke-width="1.5" stroke-linecap="round" stroke-linejoin="round"/>
<path d="M17 3.5V7.5H21" stroke="#FF8901" stroke-width="1.5" stroke-linecap="round" stroke-linejoin="round"/>
<path d="M22 2.5L17 7.5" stroke="#FF8901" stroke-width="1.5" stroke-linecap="round" stroke-linejoin="round"/>
</svg>
