<svg width="24" height="25" viewBox="0 0 24 25" fill="none" xmlns="http://www.w3.org/2000/svg">
<path d="M19 9.5C19 10.95 18.57 12.28 17.83 13.39C16.75 14.99 15.04 16.12 13.05 16.41C12.71 16.47 12.36 16.5 12 16.5C11.64 16.5 11.29 16.47 10.95 16.41C8.96 16.12 7.25 14.99 6.17 13.39C5.43 12.28 5 10.95 5 9.5C5 5.63 8.13 2.5 12 2.5C15.87 2.5 19 5.63 19 9.5Z" stroke="#07AB98" stroke-width="1.5" stroke-linecap="round" stroke-linejoin="round"/>
<path d="M21.25 18.9704L19.6 19.3604C19.23 19.4504 18.94 19.7304 18.86 20.1004L18.51 21.5704C18.32 22.3704 17.3 22.6104 16.77 21.9804L12 16.5004L7.22996 21.9904C6.69996 22.6204 5.67996 22.3804 5.48996 21.5804L5.13996 20.1104C5.04996 19.7404 4.75996 19.4504 4.39996 19.3704L2.74996 18.9804C1.98996 18.8004 1.71996 17.8504 2.26996 17.3004L6.16996 13.4004C7.24996 15.0004 8.95996 16.1304 10.95 16.4204C11.29 16.4804 11.64 16.5104 12 16.5104C12.36 16.5104 12.71 16.4804 13.05 16.4204C15.04 16.1304 16.75 15.0004 17.83 13.4004L21.73 17.3004C22.28 17.8404 22.01 18.7904 21.25 18.9704Z" stroke="#07AB98" stroke-width="1.5" stroke-linecap="round" stroke-linejoin="round"/>
<path d="M12.58 6.48L13.17 7.65999C13.25 7.81999 13.46 7.98 13.65 8.01L14.72 8.18999C15.4 8.29999 15.56 8.8 15.07 9.29L14.24 10.12C14.1 10.26 14.02 10.53 14.07 10.73L14.31 11.76C14.5 12.57 14.07 12.89 13.35 12.46L12.35 11.87C12.17 11.76 11.87 11.76 11.69 11.87L10.69 12.46C9.96997 12.88 9.53997 12.57 9.72997 11.76L9.96997 10.73C10.01 10.54 9.93997 10.26 9.79997 10.12L8.96997 9.29C8.47997 8.8 8.63997 8.30999 9.31997 8.18999L10.39 8.01C10.57 7.98 10.78 7.81999 10.86 7.65999L11.45 6.48C11.74 5.84 12.26 5.84 12.58 6.48Z" stroke="#07AB98" stroke-width="1.5" stroke-linecap="round" stroke-linejoin="round"/>
</svg>
